<svg xmlns="http://www.w3.org/2000/svg" viewBox="0 0 347.82 304.05"><defs><style>.cls-1{fill:#fab702;}.cls-2{isolation:isolate;font-size:60px;fill:#fff;font-family:OpenSans-Bold, Open Sans;font-weight:700;}</style></defs><title>Recurso 1</title><g id="Capa_2" data-name="Capa 2"><g id="Capa_1-2" data-name="Capa 1"><path class="cls-1" d="M39.65,142.18H68.22a5.36,5.36,0,0,0,.46-10.71h-29a5.36,5.36,0,1,0-.46,10.71h.46"/><path class="cls-1" d="M73.58,154a5.36,5.36,0,0,0-5.36-5.36H39.65a5.36,5.36,0,1,0-.46,10.71h29A5.35,5.35,0,0,0,73.58,154s0,0,0,0"/><path class="cls-1" d="M325.45,171.48,272.93,12.08V12A16.77,16.77,0,0,0,252.07.7q-.68.2-1.33.46c-.16,0-95.6,40.3-95.68,40.34a19.75,19.75,0,0,0-10.42,10l-.1.2L124.77,97.18H113.95a5.36,5.36,0,0,0-5.36,5.36h0v11.78H28.22a11.09,11.09,0,0,0-11.08,11.07v40a11.09,11.09,0,0,0,11.08,11.07H40V188.6H22.5a22.5,22.5,0,0,0,0,45H171.09a22.5,22.5,0,0,0,0-45h-17.5V176.47h17.5a5.36,5.36,0,0,0,5.2-6.66l-12-47.94,14-48.26L247.22,38.2,301,173.08l-29.41,32.68h-9a5.36,5.36,0,0,0,0,10.71H325.4a5.35,5.35,0,0,0,5.36-5.34V183.76a16.68,16.68,0,0,0-5.31-12.28M22.5,222.91a11.79,11.79,0,1,1,11.79-11.79h0A11.8,11.8,0,0,1,22.5,222.91m148.59-23.58a11.79,11.79,0,1,1-11.79,11.79,11.79,11.79,0,0,1,11.79-11.79M119.3,107.89H145a6.06,6.06,0,0,1,5.89,4.6l7.6,30.41H119.3Zm-5.36,68.58h28.93v12.14H50.72V176.47ZM28.22,165.76a.36.36,0,0,1-.36-.36h0v-40a.36.36,0,0,1,.36-.35h80.37v40.72Zm123.71,57.15H41.66a22.47,22.47,0,0,0,0-23.58H151.93a22.46,22.46,0,0,0,0,23.58M119.3,165.76V153.61h41.9l3,12.15H119.3Zm39.1-61.94A16.76,16.76,0,0,0,145,97.18h-8.57l10.9-25a19.62,19.62,0,0,0,15.17,7.18,19.82,19.82,0,0,0,3.07-.24Zm4.12-35.22a8.93,8.93,0,1,1,8.93-8.93h0a8.94,8.94,0,0,1-8.93,8.93m19.65-9a19.61,19.61,0,0,0-7-15L240,17.28a16.67,16.67,0,0,0,1.33,6.11v.07l1.89,4.75Zm68.58-42.79a6.07,6.07,0,1,1,6.07,6.07h0a6.08,6.08,0,0,1-6.07-6.07M257,33.59a16.72,16.72,0,0,0,10.51-3.83L312.69,167a17,17,0,0,0-2.43.37Zm63,172.17H286l23.46-26.07A6.07,6.07,0,0,1,320,183.76Z"/><path class="cls-1" d="M56.8,216.47h80a5.36,5.36,0,0,0,0-10.71h-80a5.36,5.36,0,1,0-.46,10.71h.46"/><path class="cls-1" d="M342.34,233.53H156.83a5.25,5.25,0,1,1-.46-10.49h186a5.25,5.25,0,0,1,.46,10.49h-.46"/><text class="cls-2" transform="translate(2.19 286.47)">BuildPower</text></g></g></svg>