<svg xmlns="http://www.w3.org/2000/svg" viewBox="0 0 347.59 304.03"><defs><style>.cls-1{fill:#fab702;}.cls-2{font-size:60px;font-family:OpenSans-Bold, Open Sans;font-weight:700;}</style></defs><title>Recurso 1</title><g id="Capa_2" data-name="Capa 2"><g id="Layer_1" data-name="Layer 1"><path class="cls-1" d="M39.65,142.16H68.22a5.36,5.36,0,1,0,0-10.71H39.65a5.36,5.36,0,1,0,0,10.71"/><path class="cls-1" d="M73.58,153.95a5.36,5.36,0,0,0-5.36-5.36H39.65a5.36,5.36,0,1,0,0,10.71H68.22a5.35,5.35,0,0,0,5.36-5.36"/><path class="cls-1" d="M325.45,171.46,272.93,12.06l0-.09A16.77,16.77,0,0,0,250.74,1.14c-.16,0-95.6,40.3-95.68,40.34a19.75,19.75,0,0,0-10.42,10l-.1.2L124.77,97.16H113.95a5.36,5.36,0,0,0-5.36,5.36V114.3H28.22a11.09,11.09,0,0,0-11.08,11.07v40a11.09,11.09,0,0,0,11.08,11.07H40v12.14H22.5a22.5,22.5,0,0,0,0,45H171.09a22.5,22.5,0,0,0,0-45h-17.5V176.45h17.5a5.36,5.36,0,0,0,5.2-6.66l-12-47.94,14-48.26,68.93-35.41L301,173.06l-29.41,32.68h-9a5.36,5.36,0,0,0,0,10.71H325.4a5.35,5.35,0,0,0,5.36-5.36V183.74a16.68,16.68,0,0,0-5.31-12.28M22.5,222.89A11.79,11.79,0,1,1,34.29,211.1,11.8,11.8,0,0,1,22.5,222.89m148.59-23.58A11.79,11.79,0,1,1,159.3,211.1a11.8,11.8,0,0,1,11.79-11.79M119.3,107.87H145a6.06,6.06,0,0,1,5.89,4.6l7.6,30.41H119.3Zm-5.36,68.58h28.93v12.14H50.72V176.45ZM28.22,165.74a.36.36,0,0,1-.36-.36v-40a.36.36,0,0,1,.36-.35h80.37v40.72Zm123.71,57.15H41.66a22.47,22.47,0,0,0,0-23.58H151.93a22.46,22.46,0,0,0,0,23.58M119.3,165.74V153.59H161.2l3,12.15H119.3Zm39.1-61.94A16.76,16.76,0,0,0,145,97.16h-8.57l10.9-25a19.62,19.62,0,0,0,15.17,7.18,19.82,19.82,0,0,0,3.07-.24Zm4.12-35.22a8.93,8.93,0,1,1,8.93-8.93,8.94,8.94,0,0,1-8.93,8.93m19.65-9a19.61,19.61,0,0,0-7-15L240,17.26a16.67,16.67,0,0,0,1.33,6.11l0,.07,1.89,4.75Zm68.58-42.79a6.07,6.07,0,1,1,6.07,6.07,6.08,6.08,0,0,1-6.07-6.07M257,33.57a16.72,16.72,0,0,0,10.51-3.83L312.69,167a17,17,0,0,0-2.43.37ZM320,205.74H286l23.46-26.07A6.07,6.07,0,0,1,320,183.74v22Z"/><path class="cls-1" d="M56.8,216.45h80a5.36,5.36,0,0,0,0-10.71h-80a5.36,5.36,0,1,0,0,10.71"/><path class="cls-1" d="M342.34,233.51H156.83a5.25,5.25,0,1,1,0-10.49H342.34a5.25,5.25,0,1,1,0,10.49"/><text class="cls-2" transform="translate(2.19 286.45)">BuildPower</text></g></g></svg>